<mxfile host="app.diagrams.net" agent="Mozilla/5.0 (Windows NT 10.0; Win64; x64) AppleWebKit/537.36 (KHTML, like Gecko) Chrome/138.0.0.0 Safari/537.36" version="28.0.7">
  <diagram name="Page-1" id="PFwjI5xz76DF85EKXyYI">
    <mxGraphModel dx="2037" dy="1121" grid="1" gridSize="13" guides="0" tooltips="1" connect="1" arrows="1" fold="1" page="1" pageScale="1" pageWidth="4681" pageHeight="3300" background="#FFFFFF" math="0" shadow="0">
      <root>
        <mxCell id="0" />
        <mxCell id="1" parent="0" />
        <mxCell id="Izek-PB7fgDzVprNoVY3-15" value="&lt;h2&gt;&lt;span style=&quot;font-weight: normal;&quot;&gt;SALE&lt;/span&gt;&lt;/h2&gt;" style="whiteSpace=wrap;html=1;align=center;strokeColor=#FFFFFF;fontColor=#FFFFFF;fillColor=#182E3E;" parent="1" vertex="1">
          <mxGeometry x="1163.5" y="533" width="143" height="52" as="geometry" />
        </mxCell>
        <mxCell id="Izek-PB7fgDzVprNoVY3-16" value="&lt;h2&gt;&lt;span style=&quot;font-weight: normal;&quot;&gt;CUSTOMER&lt;/span&gt;&lt;/h2&gt;" style="whiteSpace=wrap;html=1;align=center;strokeColor=#FFFFFF;fontColor=#FFFFFF;fillColor=#182E3E;" parent="1" vertex="1">
          <mxGeometry x="692.9" y="533" width="143" height="52" as="geometry" />
        </mxCell>
        <mxCell id="Izek-PB7fgDzVprNoVY3-17" value="&lt;h2&gt;&lt;font face=&quot;Helvetica&quot; style=&quot;font-weight: normal;&quot;&gt;REPAIR&lt;/font&gt;&lt;/h2&gt;" style="whiteSpace=wrap;html=1;align=center;strokeColor=#FFFFFF;fontColor=#FFFFFF;fillColor=#182E3E;" parent="1" vertex="1">
          <mxGeometry x="692.9" y="260" width="143" height="52" as="geometry" />
        </mxCell>
        <mxCell id="G7WZexkPzq9MRGBm2pqB-112" value="" style="edgeStyle=orthogonalEdgeStyle;rounded=0;orthogonalLoop=1;jettySize=auto;html=1;" edge="1" parent="1" source="Izek-PB7fgDzVprNoVY3-22">
          <mxGeometry relative="1" as="geometry">
            <mxPoint x="764.4000000000001" y="297" as="targetPoint" />
          </mxGeometry>
        </mxCell>
        <mxCell id="Izek-PB7fgDzVprNoVY3-22" value="&lt;h2&gt;&lt;span style=&quot;font-weight: normal;&quot;&gt;REQUESTS&lt;/span&gt;&lt;/h2&gt;" style="shape=rhombus;perimeter=rhombusPerimeter;whiteSpace=wrap;html=1;align=center;strokeColor=#FFFFFF;fontColor=#FFFFFF;fillColor=#182E3E;" parent="1" vertex="1">
          <mxGeometry x="676" y="377" width="176.8" height="90.67" as="geometry" />
        </mxCell>
        <mxCell id="Izek-PB7fgDzVprNoVY3-24" value="" style="endArrow=none;html=1;rounded=0;strokeColor=#000000;exitX=0.5;exitY=1;exitDx=0;exitDy=0;entryX=0.5;entryY=0;entryDx=0;entryDy=0;" parent="1" source="Izek-PB7fgDzVprNoVY3-22" target="Izek-PB7fgDzVprNoVY3-16" edge="1">
          <mxGeometry relative="1" as="geometry">
            <mxPoint x="754" y="481" as="sourcePoint" />
            <mxPoint x="914" y="481" as="targetPoint" />
          </mxGeometry>
        </mxCell>
        <mxCell id="Izek-PB7fgDzVprNoVY3-25" value="1" style="resizable=0;html=1;whiteSpace=wrap;align=right;verticalAlign=bottom;strokeColor=#FFFFFF;fontFamily=Helvetica;fontSize=12;fontColor=#FFFFFF;fillColor=#182E3E;" parent="Izek-PB7fgDzVprNoVY3-24" connectable="0" vertex="1">
          <mxGeometry x="1" relative="1" as="geometry">
            <mxPoint x="-6" y="-13" as="offset" />
          </mxGeometry>
        </mxCell>
        <mxCell id="Izek-PB7fgDzVprNoVY3-31" value="" style="shape=link;html=1;rounded=0;strokeColor=#000000;exitX=0.5;exitY=0;exitDx=0;exitDy=0;" parent="1" source="Izek-PB7fgDzVprNoVY3-22" target="Izek-PB7fgDzVprNoVY3-17" edge="1">
          <mxGeometry relative="1" as="geometry">
            <mxPoint x="620" y="351" as="sourcePoint" />
            <mxPoint x="780" y="351" as="targetPoint" />
          </mxGeometry>
        </mxCell>
        <mxCell id="Izek-PB7fgDzVprNoVY3-32" value="N" style="resizable=0;html=1;whiteSpace=wrap;align=right;verticalAlign=bottom;strokeColor=#FFFFFF;fontFamily=Helvetica;fontSize=12;fontColor=#FFFFFF;fillColor=#182E3E;" parent="Izek-PB7fgDzVprNoVY3-31" connectable="0" vertex="1">
          <mxGeometry x="1" relative="1" as="geometry">
            <mxPoint x="-6" y="26" as="offset" />
          </mxGeometry>
        </mxCell>
        <mxCell id="Izek-PB7fgDzVprNoVY3-34" value="" style="edgeLabel;html=1;align=center;verticalAlign=middle;resizable=0;points=[];strokeColor=#FFFFFF;fontFamily=Helvetica;fontSize=12;fontColor=#FFFFFF;fillColor=#182E3E;" parent="Izek-PB7fgDzVprNoVY3-31" vertex="1" connectable="0">
          <mxGeometry x="0.05" y="-6" relative="1" as="geometry">
            <mxPoint as="offset" />
          </mxGeometry>
        </mxCell>
        <mxCell id="Izek-PB7fgDzVprNoVY3-35" value="&lt;h2&gt;&lt;span style=&quot;font-weight: 400;&quot;&gt;MAKES_A&lt;/span&gt;&lt;/h2&gt;" style="shape=rhombus;perimeter=rhombusPerimeter;whiteSpace=wrap;html=1;align=center;strokeColor=#FFFFFF;fontColor=#FFFFFF;fillColor=#182E3E;" parent="1" vertex="1">
          <mxGeometry x="910" y="507" width="202.8" height="104" as="geometry" />
        </mxCell>
        <mxCell id="Izek-PB7fgDzVprNoVY3-36" value="" style="endArrow=none;html=1;rounded=0;strokeColor=#000000;entryX=1;entryY=0.5;entryDx=0;entryDy=0;exitX=0;exitY=0.5;exitDx=0;exitDy=0;" parent="1" source="Izek-PB7fgDzVprNoVY3-35" target="Izek-PB7fgDzVprNoVY3-16" edge="1">
          <mxGeometry relative="1" as="geometry">
            <mxPoint x="689" y="598" as="sourcePoint" />
            <mxPoint x="849" y="598" as="targetPoint" />
          </mxGeometry>
        </mxCell>
        <mxCell id="Izek-PB7fgDzVprNoVY3-37" value="1" style="resizable=0;html=1;whiteSpace=wrap;align=right;verticalAlign=bottom;strokeColor=#FFFFFF;fontFamily=Helvetica;fontSize=12;fontColor=#FFFFFF;fillColor=#182E3E;" parent="Izek-PB7fgDzVprNoVY3-36" connectable="0" vertex="1">
          <mxGeometry x="1" relative="1" as="geometry">
            <mxPoint x="13" as="offset" />
          </mxGeometry>
        </mxCell>
        <mxCell id="Izek-PB7fgDzVprNoVY3-38" value="" style="shape=link;html=1;rounded=0;strokeColor=#000000;width=4;exitX=1;exitY=0.5;exitDx=0;exitDy=0;entryX=0;entryY=0.5;entryDx=0;entryDy=0;" parent="1" source="Izek-PB7fgDzVprNoVY3-35" target="Izek-PB7fgDzVprNoVY3-15" edge="1">
          <mxGeometry relative="1" as="geometry">
            <mxPoint x="984" y="558.5" as="sourcePoint" />
            <mxPoint x="1144" y="558.5" as="targetPoint" />
          </mxGeometry>
        </mxCell>
        <mxCell id="Izek-PB7fgDzVprNoVY3-39" value="N" style="resizable=0;html=1;whiteSpace=wrap;align=right;verticalAlign=bottom;strokeColor=#FFFFFF;fontFamily=Helvetica;fontSize=12;fontColor=#FFFFFF;fillColor=#182E3E;" parent="Izek-PB7fgDzVprNoVY3-38" connectable="0" vertex="1">
          <mxGeometry x="1" relative="1" as="geometry">
            <mxPoint x="-6" as="offset" />
          </mxGeometry>
        </mxCell>
        <mxCell id="Izek-PB7fgDzVprNoVY3-60" value="" style="edgeLabel;html=1;align=center;verticalAlign=middle;resizable=0;points=[];strokeColor=#FFFFFF;fontFamily=Helvetica;fontSize=12;fontColor=#FFFFFF;fillColor=#182E3E;" parent="Izek-PB7fgDzVprNoVY3-38" vertex="1" connectable="0">
          <mxGeometry x="-0.0769" y="-3" relative="1" as="geometry">
            <mxPoint as="offset" />
          </mxGeometry>
        </mxCell>
        <mxCell id="G7WZexkPzq9MRGBm2pqB-114" value="" style="edgeStyle=orthogonalEdgeStyle;rounded=0;orthogonalLoop=1;jettySize=auto;html=1;" edge="1" parent="1" source="Izek-PB7fgDzVprNoVY3-41">
          <mxGeometry relative="1" as="geometry">
            <mxPoint x="1384.5000000000005" y="687" as="targetPoint" />
          </mxGeometry>
        </mxCell>
        <mxCell id="Izek-PB7fgDzVprNoVY3-41" value="&lt;h2&gt;&lt;span style=&quot;font-weight: 400;&quot;&gt;INSTRUMENT&lt;/span&gt;&lt;/h2&gt;" style="whiteSpace=wrap;html=1;align=center;strokeColor=#FFFFFF;fontColor=#FFFFFF;fillColor=#182E3E;" parent="1" vertex="1">
          <mxGeometry x="1306.5" y="767" width="156" height="56.73" as="geometry" />
        </mxCell>
        <mxCell id="Izek-PB7fgDzVprNoVY3-42" value="&lt;h2&gt;&lt;span style=&quot;font-weight: 400;&quot;&gt;INCLUDES&lt;/span&gt;&lt;/h2&gt;" style="shape=rhombus;perimeter=rhombusPerimeter;whiteSpace=wrap;html=1;align=center;strokeColor=#FFFFFF;fontColor=#FFFFFF;fillColor=#182E3E;" parent="1" vertex="1">
          <mxGeometry x="1300" y="622" width="169" height="86.67" as="geometry" />
        </mxCell>
        <mxCell id="Izek-PB7fgDzVprNoVY3-50" value="" style="shape=link;html=1;rounded=0;strokeColor=#000000;entryX=0.5;entryY=0;entryDx=0;entryDy=0;exitX=1;exitY=0.5;exitDx=0;exitDy=0;" parent="1" source="Izek-PB7fgDzVprNoVY3-15" target="Izek-PB7fgDzVprNoVY3-42" edge="1">
          <mxGeometry relative="1" as="geometry">
            <mxPoint x="1326" y="559" as="sourcePoint" />
            <mxPoint x="1397.5" y="622" as="targetPoint" />
          </mxGeometry>
        </mxCell>
        <mxCell id="Izek-PB7fgDzVprNoVY3-51" value="1" style="resizable=0;html=1;whiteSpace=wrap;align=right;verticalAlign=bottom;strokeColor=#FFFFFF;fontFamily=Helvetica;fontSize=12;fontColor=#FFFFFF;fillColor=#182E3E;" parent="Izek-PB7fgDzVprNoVY3-50" connectable="0" vertex="1">
          <mxGeometry x="1" relative="1" as="geometry">
            <mxPoint x="-58" y="-63" as="offset" />
          </mxGeometry>
        </mxCell>
        <mxCell id="Izek-PB7fgDzVprNoVY3-53" value="" style="endArrow=none;html=1;rounded=0;strokeColor=#000000;entryX=0.5;entryY=0;entryDx=0;entryDy=0;exitX=0.5;exitY=1;exitDx=0;exitDy=0;" parent="1" source="Izek-PB7fgDzVprNoVY3-42" target="Izek-PB7fgDzVprNoVY3-41" edge="1">
          <mxGeometry relative="1" as="geometry">
            <mxPoint x="1385" y="715" as="sourcePoint" />
            <mxPoint x="1395" y="728" as="targetPoint" />
          </mxGeometry>
        </mxCell>
        <mxCell id="Izek-PB7fgDzVprNoVY3-54" value="N" style="resizable=0;html=1;whiteSpace=wrap;align=right;verticalAlign=bottom;strokeColor=#FFFFFF;fontFamily=Helvetica;fontSize=12;fontColor=#FFFFFF;fillColor=#182E3E;" parent="Izek-PB7fgDzVprNoVY3-53" connectable="0" vertex="1">
          <mxGeometry x="1" relative="1" as="geometry" />
        </mxCell>
        <mxCell id="Izek-PB7fgDzVprNoVY3-57" value="&lt;h2&gt;&lt;span style=&quot;font-weight: 400;&quot;&gt;COMPANY&lt;/span&gt;&lt;/h2&gt;" style="whiteSpace=wrap;html=1;align=center;strokeColor=#FFFFFF;fontColor=#FFFFFF;fillColor=#182E3E;" parent="1" vertex="1">
          <mxGeometry x="910" y="871" width="143" height="52" as="geometry" />
        </mxCell>
        <mxCell id="Izek-PB7fgDzVprNoVY3-58" value="&lt;h2&gt;&lt;span style=&quot;font-weight: 400;&quot;&gt;MANUFACTURED_BY&lt;/span&gt;&lt;/h2&gt;" style="shape=rhombus;perimeter=rhombusPerimeter;whiteSpace=wrap;html=1;align=center;strokeColor=#FFFFFF;fontColor=#FFFFFF;fillColor=#182E3E;" parent="1" vertex="1">
          <mxGeometry x="1079" y="832" width="253.5" height="130" as="geometry" />
        </mxCell>
        <mxCell id="Izek-PB7fgDzVprNoVY3-59" style="edgeStyle=orthogonalEdgeStyle;rounded=0;orthogonalLoop=1;jettySize=auto;html=1;exitX=0.5;exitY=0;exitDx=0;exitDy=0;entryX=0.583;entryY=-0.018;entryDx=0;entryDy=0;entryPerimeter=0;strokeColor=#23445D;fontFamily=Helvetica;fontSize=12;fontColor=#FFFFFF;" parent="1" source="Izek-PB7fgDzVprNoVY3-41" target="Izek-PB7fgDzVprNoVY3-41" edge="1">
          <mxGeometry relative="1" as="geometry" />
        </mxCell>
        <mxCell id="Izek-PB7fgDzVprNoVY3-61" value="" style="shape=link;html=1;rounded=0;strokeColor=#000000;width=0;exitX=1;exitY=0.5;exitDx=0;exitDy=0;entryX=0.5;entryY=1;entryDx=0;entryDy=0;" parent="1" source="Izek-PB7fgDzVprNoVY3-58" target="Izek-PB7fgDzVprNoVY3-41" edge="1">
          <mxGeometry relative="1" as="geometry">
            <mxPoint x="1326" y="870" as="sourcePoint" />
            <mxPoint x="1404" y="870" as="targetPoint" />
          </mxGeometry>
        </mxCell>
        <mxCell id="Izek-PB7fgDzVprNoVY3-62" value="N" style="resizable=0;html=1;whiteSpace=wrap;align=right;verticalAlign=bottom;strokeColor=#FFFFFF;fontFamily=Helvetica;fontSize=12;fontColor=#FFFFFF;fillColor=#182E3E;" parent="Izek-PB7fgDzVprNoVY3-61" connectable="0" vertex="1">
          <mxGeometry x="1" relative="1" as="geometry">
            <mxPoint x="-20" y="21" as="offset" />
          </mxGeometry>
        </mxCell>
        <mxCell id="Izek-PB7fgDzVprNoVY3-63" value="" style="edgeLabel;html=1;align=center;verticalAlign=middle;resizable=0;points=[];strokeColor=#FFFFFF;fontFamily=Helvetica;fontSize=12;fontColor=#FFFFFF;fillColor=#182E3E;" parent="Izek-PB7fgDzVprNoVY3-61" vertex="1" connectable="0">
          <mxGeometry x="-0.0769" y="-3" relative="1" as="geometry">
            <mxPoint as="offset" />
          </mxGeometry>
        </mxCell>
        <mxCell id="Izek-PB7fgDzVprNoVY3-66" value="" style="shape=link;html=1;rounded=0;strokeColor=#000000;entryX=0;entryY=0.5;entryDx=0;entryDy=0;exitX=1;exitY=0.5;exitDx=0;exitDy=0;" parent="1" source="Izek-PB7fgDzVprNoVY3-57" target="Izek-PB7fgDzVprNoVY3-58" edge="1">
          <mxGeometry relative="1" as="geometry">
            <mxPoint x="958" y="865.25" as="sourcePoint" />
            <mxPoint x="1043" y="928.75" as="targetPoint" />
          </mxGeometry>
        </mxCell>
        <mxCell id="Izek-PB7fgDzVprNoVY3-67" value="1" style="resizable=0;html=1;whiteSpace=wrap;align=right;verticalAlign=bottom;strokeColor=#FFFFFF;fontFamily=Helvetica;fontSize=12;fontColor=#FFFFFF;fillColor=#182E3E;" parent="Izek-PB7fgDzVprNoVY3-66" connectable="0" vertex="1">
          <mxGeometry x="1" relative="1" as="geometry">
            <mxPoint x="-14" as="offset" />
          </mxGeometry>
        </mxCell>
        <mxCell id="Izek-PB7fgDzVprNoVY3-68" value="&lt;h2&gt;&lt;span style=&quot;font-weight: 400;&quot;&gt;EMPLOYEE&lt;/span&gt;&lt;/h2&gt;" style="whiteSpace=wrap;html=1;align=center;strokeColor=#FFFFFF;fontColor=#FFFFFF;fillColor=#182E3E;" parent="1" vertex="1">
          <mxGeometry x="637" y="622" width="143" height="52" as="geometry" />
        </mxCell>
        <mxCell id="Izek-PB7fgDzVprNoVY3-76" value="" style="shape=link;html=1;rounded=0;strokeColor=#000000;exitX=0.5;exitY=0;exitDx=0;exitDy=0;" parent="1" source="Izek-PB7fgDzVprNoVY3-70" edge="1">
          <mxGeometry relative="1" as="geometry">
            <mxPoint x="532.9" y="285.5" as="sourcePoint" />
            <mxPoint x="692.9" y="285.5" as="targetPoint" />
          </mxGeometry>
        </mxCell>
        <mxCell id="Izek-PB7fgDzVprNoVY3-77" value="N" style="resizable=0;html=1;whiteSpace=wrap;align=right;verticalAlign=bottom;strokeColor=#FFFFFF;fontFamily=Helvetica;fontSize=12;fontColor=#FFFFFF;fillColor=#182E3E;" parent="Izek-PB7fgDzVprNoVY3-76" connectable="0" vertex="1">
          <mxGeometry x="1" relative="1" as="geometry">
            <mxPoint x="-4" y="1" as="offset" />
          </mxGeometry>
        </mxCell>
        <mxCell id="Izek-PB7fgDzVprNoVY3-78" value="&lt;h3&gt;&lt;span style=&quot;font-weight: normal;&quot;&gt;IS A&lt;/span&gt;&lt;/h3&gt;" style="triangle;whiteSpace=wrap;html=1;strokeColor=#FFFFFF;align=center;verticalAlign=middle;fontFamily=Helvetica;fontSize=12;fontColor=#FFFFFF;fillColor=#182E3E;direction=south;" parent="1" vertex="1">
          <mxGeometry x="663.23" y="728" width="90.54" height="69.73" as="geometry" />
        </mxCell>
        <mxCell id="Izek-PB7fgDzVprNoVY3-79" value="&lt;h2&gt;&lt;span style=&quot;font-weight: 400;&quot;&gt;REPAIR_TECHNICIAN&lt;/span&gt;&lt;/h2&gt;" style="whiteSpace=wrap;html=1;align=center;strokeColor=#FFFFFF;fontColor=#FFFFFF;fillColor=#182E3E;" parent="1" vertex="1">
          <mxGeometry x="454" y="858" width="208" height="52" as="geometry" />
        </mxCell>
        <mxCell id="Izek-PB7fgDzVprNoVY3-80" value="&lt;h2&gt;&lt;span style=&quot;font-weight: 400;&quot;&gt;SALES_ASSOCIATE&lt;/span&gt;&lt;/h2&gt;" style="whiteSpace=wrap;html=1;align=center;strokeColor=#FFFFFF;fontColor=#FFFFFF;fillColor=#182E3E;" parent="1" vertex="1">
          <mxGeometry x="689" y="858" width="195" height="52" as="geometry" />
        </mxCell>
        <mxCell id="Izek-PB7fgDzVprNoVY3-83" value="" style="endArrow=none;html=1;rounded=0;strokeColor=#000000;entryX=0.5;entryY=1;entryDx=0;entryDy=0;exitX=0;exitY=0.5;exitDx=0;exitDy=0;" parent="1" source="Izek-PB7fgDzVprNoVY3-78" target="Izek-PB7fgDzVprNoVY3-68" edge="1">
          <mxGeometry relative="1" as="geometry">
            <mxPoint x="689" y="598" as="sourcePoint" />
            <mxPoint x="849" y="598" as="targetPoint" />
          </mxGeometry>
        </mxCell>
        <mxCell id="Izek-PB7fgDzVprNoVY3-84" value="" style="endArrow=none;html=1;rounded=0;strokeColor=#000000;entryX=0.5;entryY=1;entryDx=0;entryDy=0;exitX=0.5;exitY=0;exitDx=0;exitDy=0;" parent="1" source="Izek-PB7fgDzVprNoVY3-79" target="Izek-PB7fgDzVprNoVY3-78" edge="1">
          <mxGeometry relative="1" as="geometry">
            <mxPoint x="689" y="598" as="sourcePoint" />
            <mxPoint x="849" y="598" as="targetPoint" />
          </mxGeometry>
        </mxCell>
        <mxCell id="Izek-PB7fgDzVprNoVY3-85" value="" style="endArrow=none;html=1;rounded=0;strokeColor=#000000;entryX=0.5;entryY=0;entryDx=0;entryDy=0;exitX=0.5;exitY=0;exitDx=0;exitDy=0;" parent="1" source="Izek-PB7fgDzVprNoVY3-80" target="Izek-PB7fgDzVprNoVY3-78" edge="1">
          <mxGeometry relative="1" as="geometry">
            <mxPoint x="689" y="598" as="sourcePoint" />
            <mxPoint x="849" y="598" as="targetPoint" />
          </mxGeometry>
        </mxCell>
        <mxCell id="G7WZexkPzq9MRGBm2pqB-81" value="" style="endArrow=none;html=1;rounded=0;" edge="1" parent="1" source="Izek-PB7fgDzVprNoVY3-70">
          <mxGeometry relative="1" as="geometry">
            <mxPoint x="650" y="572" as="sourcePoint" />
            <mxPoint x="468" y="416" as="targetPoint" />
          </mxGeometry>
        </mxCell>
        <mxCell id="Izek-PB7fgDzVprNoVY3-70" value="&lt;h2&gt;&lt;span style=&quot;font-weight: 400;&quot;&gt;PERFORMS&lt;/span&gt;&lt;/h2&gt;" style="shape=rhombus;perimeter=rhombusPerimeter;whiteSpace=wrap;html=1;align=center;strokeColor=#FFFFFF;fontColor=#FFFFFF;fillColor=#182E3E;" parent="1" vertex="1">
          <mxGeometry x="364" y="377" width="176.8" height="90.67" as="geometry" />
        </mxCell>
        <mxCell id="G7WZexkPzq9MRGBm2pqB-93" value="" style="line;strokeWidth=1;rotatable=0;dashed=0;labelPosition=right;align=left;verticalAlign=middle;spacingTop=0;spacingLeft=6;points=[];portConstraint=eastwest;" vertex="1" parent="1">
          <mxGeometry x="364" y="884" width="34" height="10" as="geometry" />
        </mxCell>
        <mxCell id="G7WZexkPzq9MRGBm2pqB-98" value="" style="endArrow=none;html=1;rounded=0;exitX=0;exitY=0.5;exitDx=0;exitDy=0;strokeColor=#000000;entryX=0;entryY=0.5;entryDx=0;entryDy=0;shape=link;" edge="1" parent="1" source="Izek-PB7fgDzVprNoVY3-70" target="Izek-PB7fgDzVprNoVY3-79">
          <mxGeometry relative="1" as="geometry">
            <mxPoint x="650" y="624" as="sourcePoint" />
            <mxPoint x="810" y="624" as="targetPoint" />
            <Array as="points">
              <mxPoint x="364" y="884" />
            </Array>
          </mxGeometry>
        </mxCell>
        <mxCell id="G7WZexkPzq9MRGBm2pqB-99" value="1" style="resizable=0;html=1;whiteSpace=wrap;align=right;verticalAlign=bottom;" connectable="0" vertex="1" parent="G7WZexkPzq9MRGBm2pqB-98">
          <mxGeometry x="1" relative="1" as="geometry" />
        </mxCell>
        <mxCell id="G7WZexkPzq9MRGBm2pqB-104" value="1" style="resizable=0;html=1;whiteSpace=wrap;align=right;verticalAlign=bottom;strokeColor=#FFFFFF;fontFamily=Helvetica;fontSize=12;fontColor=#FFFFFF;fillColor=#182E3E;" connectable="0" vertex="1" parent="1">
          <mxGeometry x="442" y="871" as="geometry" />
        </mxCell>
        <mxCell id="G7WZexkPzq9MRGBm2pqB-105" value="&lt;h2&gt;&lt;span style=&quot;font-weight: 400;&quot;&gt;PROCESSES&lt;/span&gt;&lt;/h2&gt;" style="shape=rhombus;perimeter=rhombusPerimeter;whiteSpace=wrap;html=1;align=center;strokeColor=#FFFFFF;fontColor=#FFFFFF;fillColor=light-dark(#cce5ff, #b9ccda);" vertex="1" parent="1">
          <mxGeometry x="1508" y="676" width="202.8" height="104" as="geometry" />
        </mxCell>
        <mxCell id="G7WZexkPzq9MRGBm2pqB-106" value="" style="endArrow=none;html=1;rounded=0;strokeColor=#000000;entryX=0.5;entryY=1;entryDx=0;entryDy=0;exitX=0.5;exitY=1;exitDx=0;exitDy=0;shape=link;" edge="1" parent="1" source="G7WZexkPzq9MRGBm2pqB-105" target="Izek-PB7fgDzVprNoVY3-80">
          <mxGeometry relative="1" as="geometry">
            <mxPoint x="893" y="1001" as="sourcePoint" />
            <mxPoint x="819" y="1001" as="targetPoint" />
            <Array as="points">
              <mxPoint x="1612" y="1014" />
              <mxPoint x="1196" y="1014" />
              <mxPoint x="787" y="1014" />
            </Array>
          </mxGeometry>
        </mxCell>
        <mxCell id="G7WZexkPzq9MRGBm2pqB-107" value="1" style="resizable=0;html=1;whiteSpace=wrap;align=right;verticalAlign=bottom;strokeColor=#FFFFFF;fontFamily=Helvetica;fontSize=12;fontColor=#FFFFFF;fillColor=#182E3E;" connectable="0" vertex="1" parent="G7WZexkPzq9MRGBm2pqB-106">
          <mxGeometry x="1" relative="1" as="geometry">
            <mxPoint x="20" y="26" as="offset" />
          </mxGeometry>
        </mxCell>
        <mxCell id="G7WZexkPzq9MRGBm2pqB-108" value="" style="endArrow=none;html=1;rounded=0;exitX=0.5;exitY=0;exitDx=0;exitDy=0;strokeColor=#000000;shape=link;" edge="1" parent="1" source="G7WZexkPzq9MRGBm2pqB-105">
          <mxGeometry relative="1" as="geometry">
            <mxPoint x="650" y="741" as="sourcePoint" />
            <mxPoint x="1313" y="559" as="targetPoint" />
            <Array as="points">
              <mxPoint x="1612" y="559" />
            </Array>
          </mxGeometry>
        </mxCell>
        <mxCell id="G7WZexkPzq9MRGBm2pqB-109" value="N" style="resizable=0;html=1;whiteSpace=wrap;align=right;verticalAlign=bottom;" connectable="0" vertex="1" parent="G7WZexkPzq9MRGBm2pqB-108">
          <mxGeometry x="1" relative="1" as="geometry" />
        </mxCell>
        <mxCell id="G7WZexkPzq9MRGBm2pqB-110" value="N" style="resizable=0;html=1;whiteSpace=wrap;align=right;verticalAlign=bottom;strokeColor=#FFFFFF;fontFamily=Helvetica;fontSize=12;fontColor=#FFFFFF;fillColor=#182E3E;" connectable="0" vertex="1" parent="1">
          <mxGeometry x="851" y="424" as="geometry">
            <mxPoint x="503" y="132" as="offset" />
          </mxGeometry>
        </mxCell>
        <mxCell id="GEMINI-ATTR-INST-1" value="&lt;u&gt;Serial_Number&lt;/u&gt;" style="ellipse;whiteSpace=wrap;html=1;align=center;fontColor=#000000;fillColor=#dae8fc;strokeColor=#6c8ebf;" vertex="1" parent="1">
          <mxGeometry x="1206.5" y="687" width="100" height="40" as="geometry" />
        </mxCell>
        <mxCell id="GEMINI-EDGE-INST-1" value="" style="endArrow=none;html=1;rounded=0;strokeColor=#666666;" edge="1" parent="1" source="GEMINI-ATTR-INST-1" target="Izek-PB7fgDzVprNoVY3-41">
          <mxGeometry relative="1" as="geometry">
            <mxPoint x="1256.5" y="727" as="sourcePoint" />
            <mxPoint x="1356.5" y="727" as="targetPoint" />
          </mxGeometry>
        </mxCell>
        <mxCell id="GEMINI-ATTR-INST-2" value="Instrument_Type" style="ellipse;whiteSpace=wrap;html=1;align=center;fontColor=#000000;fillColor=#dae8fc;strokeColor=#6c8ebf;" vertex="1" parent="1">
          <mxGeometry x="1416.5" y="687" width="100" height="40" as="geometry" />
        </mxCell>
        <mxCell id="GEMINI-EDGE-INST-2" value="" style="endArrow=none;html=1;rounded=0;strokeColor=#666666;" edge="1" parent="1" source="GEMINI-ATTR-INST-2" target="Izek-PB7fgDzVprNoVY3-41">
          <mxGeometry relative="1" as="geometry">
            <mxPoint x="1466.5" y="727" as="sourcePoint" />
            <mxPoint x="1366.5" y="727" as="targetPoint" />
          </mxGeometry>
        </mxCell>
        <mxCell id="GEMINI-ATTR-INST-3" value="Model_Name" style="ellipse;whiteSpace=wrap;html=1;align=center;fontColor=#000000;fillColor=#dae8fc;strokeColor=#6c8ebf;" vertex="1" parent="1">
          <mxGeometry x="1506.5" y="747" width="100" height="40" as="geometry" />
        </mxCell>
        <mxCell id="GEMINI-EDGE-INST-3" value="" style="endArrow=none;html=1;rounded=0;strokeColor=#666666;" edge="1" parent="1" source="GEMINI-ATTR-INST-3" target="Izek-PB7fgDzVprNoVY3-41">
          <mxGeometry relative="1" as="geometry">
            <mxPoint x="1556.5" y="787" as="sourcePoint" />
            <mxPoint x="1456.5" y="787" as="targetPoint" />
          </mxGeometry>
        </mxCell>
        <mxCell id="GEMINI-ATTR-INST-4" value="Color" style="ellipse;whiteSpace=wrap;html=1;align=center;fontColor=#000000;fillColor=#dae8fc;strokeColor=#6c8ebf;" vertex="1" parent="1">
          <mxGeometry x="1506.5" y="807" width="100" height="40" as="geometry" />
        </mxCell>
        <mxCell id="GEMINI-EDGE-INST-4" value="" style="endArrow=none;html=1;rounded=0;strokeColor=#666666;" edge="1" parent="1" source="GEMINI-ATTR-INST-4" target="Izek-PB7fgDzVprNoVY3-41">
          <mxGeometry relative="1" as="geometry">
            <mxPoint x="1556.5" y="847" as="sourcePoint" />
            <mxPoint x="1456.5" y="847" as="targetPoint" />
          </mxGeometry>
        </mxCell>
        <mxCell id="GEMINI-ATTR-INST-5" value="MRP" style="ellipse;whiteSpace=wrap;html=1;align=center;fontColor=#000000;fillColor=#dae8fc;strokeColor=#6c8ebf;" vertex="1" parent="1">
          <mxGeometry x="1416.5" y="867" width="100" height="40" as="geometry" />
        </mxCell>
        <mxCell id="GEMINI-EDGE-INST-5" value="" style="endArrow=none;html=1;rounded=0;strokeColor=#666666;" edge="1" parent="1" source="GEMINI-ATTR-INST-5" target="Izek-PB7fgDzVprNoVY3-41">
          <mxGeometry relative="1" as="geometry">
            <mxPoint x="1466.5" y="907" as="sourcePoint" />
            <mxPoint x="1366.5" y="907" as="targetPoint" />
          </mxGeometry>
        </mxCell>
        <mxCell id="GEMINI-ATTR-INST-6" value="Purchase_Cost" style="ellipse;whiteSpace=wrap;html=1;align=center;fontColor=#000000;fillColor=#dae8fc;strokeColor=#6c8ebf;" vertex="1" parent="1">
          <mxGeometry x="1206.5" y="867" width="100" height="40" as="geometry" />
        </mxCell>
        <mxCell id="GEMINI-EDGE-INST-6" value="" style="endArrow=none;html=1;rounded=0;strokeColor=#666666;" edge="1" parent="1" source="GEMINI-ATTR-INST-6" target="Izek-PB7fgDzVprNoVY3-41">
          <mxGeometry relative="1" as="geometry">
            <mxPoint x="1256.5" y="907" as="sourcePoint" />
            <mxPoint x="1356.5" y="907" as="targetPoint" />
          </mxGeometry>
        </mxCell>
        <mxCell id="GEMINI-ATTR-INST-7" value="Condition" style="ellipse;whiteSpace=wrap;html=1;align=center;fontColor=#000000;fillColor=#dae8fc;strokeColor=#6c8ebf;" vertex="1" parent="1">
          <mxGeometry x="1116.5" y="807" width="100" height="40" as="geometry" />
        </mxCell>
        <mxCell id="GEMINI-EDGE-INST-7" value="" style="endArrow=none;html=1;rounded=0;strokeColor=#666666;" edge="1" parent="1" source="GEMINI-ATTR-INST-7" target="Izek-PB7fgDzVprNoVY3-41">
          <mxGeometry relative="1" as="geometry">
            <mxPoint x="1166.5" y="847" as="sourcePoint" />
            <mxPoint x="1266.5" y="847" as="targetPoint" />
          </mxGeometry>
        </mxCell>
        <mxCell id="GEMINI-ATTR-INST-8" value="Status" style="ellipse;whiteSpace=wrap;html=1;align=center;fontColor=#000000;fillColor=#dae8fc;strokeColor=#6c8ebf;" vertex="1" parent="1">
          <mxGeometry x="1116.5" y="747" width="100" height="40" as="geometry" />
        </mxCell>
        <mxCell id="GEMINI-EDGE-INST-8" value="" style="endArrow=none;html=1;rounded=0;strokeColor=#666666;" edge="1" parent="1" source="GEMINI-ATTR-INST-8" target="Izek-PB7fgDzVprNoVY3-41">
          <mxGeometry relative="1" as="geometry">
            <mxPoint x="1166.5" y="787" as="sourcePoint" />
            <mxPoint x="1266.5" y="787" as="targetPoint" />
          </mxGeometry>
        </mxCell>
        <mxCell id="GEMINI-ATTR-CUST-1" value="&lt;u&gt;Customer_ID&lt;/u&gt;" style="ellipse;whiteSpace=wrap;html=1;align=center;fontColor=#000000;fillColor=#dae8fc;strokeColor=#6c8ebf;" vertex="1" parent="1">
          <mxGeometry x="522.9" y="463" width="100" height="40" as="geometry" />
        </mxCell>
        <mxCell id="GEMINI-EDGE-CUST-1" value="" style="endArrow=none;html=1;rounded=0;strokeColor=#666666;" edge="1" parent="1" source="GEMINI-ATTR-CUST-1" target="Izek-PB7fgDzVprNoVY3-16">
          <mxGeometry relative="1" as="geometry">
            <mxPoint x="572.9" y="503" as="sourcePoint" />
            <mxPoint x="672.9" y="503" as="targetPoint" />
          </mxGeometry>
        </mxCell>
        <mxCell id="GEMINI-ATTR-CUST-2" value="Phone_Number" style="ellipse;shape=doubleEllipse;whiteSpace=wrap;html=1;align=center;fontColor=#000000;fillColor=#dae8fc;strokeColor=#6c8ebf;" vertex="1" parent="1">
          <mxGeometry x="462.9" y="533" width="110" height="50" as="geometry" />
        </mxCell>
        <mxCell id="GEMINI-EDGE-CUST-2" value="" style="endArrow=none;html=1;rounded=0;strokeColor=#666666;" edge="1" parent="1" source="GEMINI-ATTR-CUST-2" target="Izek-PB7fgDzVprNoVY3-16">
          <mxGeometry relative="1" as="geometry">
            <mxPoint x="517.9" y="558" as="sourcePoint" />
            <mxPoint x="617.9" y="558" as="targetPoint" />
          </mxGeometry>
        </mxCell>
        <mxCell id="GEMINI-ATTR-CUST-3" value="Email_Address" style="ellipse;whiteSpace=wrap;html=1;align=center;fontColor=#000000;fillColor=#dae8fc;strokeColor=#6c8ebf;" vertex="1" parent="1">
          <mxGeometry x="522.9" y="613" width="100" height="40" as="geometry" />
        </mxCell>
        <mxCell id="GEMINI-EDGE-CUST-3" value="" style="endArrow=none;html=1;rounded=0;strokeColor=#666666;" edge="1" parent="1" source="GEMINI-ATTR-CUST-3" target="Izek-PB7fgDzVprNoVY3-16">
          <mxGeometry relative="1" as="geometry">
            <mxPoint x="572.9" y="653" as="sourcePoint" />
            <mxPoint x="672.9" y="653" as="targetPoint" />
          </mxGeometry>
        </mxCell>
        <mxCell id="GEMINI-ATTR-CUST-4" value="Date_of_Registration" style="ellipse;whiteSpace=wrap;html=1;align=center;fontColor=#000000;fillColor=#dae8fc;strokeColor=#6c8ebf;" vertex="1" parent="1">
          <mxGeometry x="852.9" y="463" width="120" height="40" as="geometry" />
        </mxCell>
        <mxCell id="GEMINI-EDGE-CUST-4" value="" style="endArrow=none;html=1;rounded=0;strokeColor=#666666;" edge="1" parent="1" source="GEMINI-ATTR-CUST-4" target="Izek-PB7fgDzVprNoVY3-16">
          <mxGeometry relative="1" as="geometry">
            <mxPoint x="912.9" y="503" as="sourcePoint" />
            <mxPoint x="812.9" y="503" as="targetPoint" />
          </mxGeometry>
        </mxCell>
        <mxCell id="GEMINI-ATTR-CUST-5" value="Name" style="ellipse;whiteSpace=wrap;html=1;align=center;fontColor=#000000;fillColor=#dae8fc;strokeColor=#6c8ebf;" vertex="1" parent="1">
          <mxGeometry x="872.9" y="548" width="80" height="40" as="geometry" />
        </mxCell>
        <mxCell id="GEMINI-EDGE-CUST-5" value="" style="endArrow=none;html=1;rounded=0;strokeColor=#666666;" edge="1" parent="1" source="GEMINI-ATTR-CUST-5" target="Izek-PB7fgDzVprNoVY3-16">
          <mxGeometry relative="1" as="geometry">
            <mxPoint x="912.9" y="588" as="sourcePoint" />
            <mxPoint x="812.9" y="588" as="targetPoint" />
          </mxGeometry>
        </mxCell>
        <mxCell id="GEMINI-ATTR-CUST-5A" value="First_Name" style="ellipse;whiteSpace=wrap;html=1;align=center;fontColor=#000000;fillColor=#dae8fc;strokeColor=#6c8ebf;" vertex="1" parent="1">
          <mxGeometry x="982.9" y="508" width="90" height="30" as="geometry" />
        </mxCell>
        <mxCell id="GEMINI-EDGE-CUST-5A" value="" style="endArrow=none;html=1;rounded=0;strokeColor=#666666;" edge="1" parent="1" source="GEMINI-ATTR-CUST-5A" target="GEMINI-ATTR-CUST-5">
          <mxGeometry relative="1" as="geometry">
            <mxPoint x="1027.9" y="538" as="sourcePoint" />
            <mxPoint x="927.9" y="538" as="targetPoint" />
          </mxGeometry>
        </mxCell>
        <mxCell id="GEMINI-ATTR-CUST-5B" value="Middle_Initial" style="ellipse;whiteSpace=wrap;html=1;align=center;fontColor=#000000;fillColor=#dae8fc;strokeColor=#6c8ebf;" vertex="1" parent="1">
          <mxGeometry x="982.9" y="558" width="90" height="30" as="geometry" />
        </mxCell>
        <mxCell id="GEMINI-EDGE-CUST-5B" value="" style="endArrow=none;html=1;rounded=0;strokeColor=#666666;" edge="1" parent="1" source="GEMINI-ATTR-CUST-5B" target="GEMINI-ATTR-CUST-5">
          <mxGeometry relative="1" as="geometry">
            <mxPoint x="1027.9" y="588" as="sourcePoint" />
            <mxPoint x="927.9" y="588" as="targetPoint" />
          </mxGeometry>
        </mxCell>
        <mxCell id="GEMINI-ATTR-CUST-5C" value="Last_Name" style="ellipse;whiteSpace=wrap;html=1;align=center;fontColor=#000000;fillColor=#dae8fc;strokeColor=#6c8ebf;" vertex="1" parent="1">
          <mxGeometry x="982.9" y="608" width="90" height="30" as="geometry" />
        </mxCell>
        <mxCell id="GEMINI-EDGE-CUST-5C" value="" style="endArrow=none;html=1;rounded=0;strokeColor=#666666;" edge="1" parent="1" source="GEMINI-ATTR-CUST-5C" target="GEMINI-ATTR-CUST-5">
          <mxGeometry relative="1" as="geometry">
            <mxPoint x="1027.9" y="638" as="sourcePoint" />
            <mxPoint x="927.9" y="638" as="targetPoint" />
          </mxGeometry>
        </mxCell>
        <mxCell id="GEMINI-ATTR-CUST-6" value="Address" style="ellipse;whiteSpace=wrap;html=1;align=center;fontColor=#000000;fillColor=#dae8fc;strokeColor=#6c8ebf;" vertex="1" parent="1">
          <mxGeometry x="722.9" y="625" width="80" height="40" as="geometry" />
        </mxCell>
        <mxCell id="GEMINI-EDGE-CUST-6" value="" style="endArrow=none;html=1;rounded=0;strokeColor=#666666;" edge="1" parent="1" source="GEMINI-ATTR-CUST-6" target="Izek-PB7fgDzVprNoVY3-16">
          <mxGeometry relative="1" as="geometry">
            <mxPoint x="762.9" y="665" as="sourcePoint" />
            <mxPoint x="762.9" y="565" as="targetPoint" />
          </mxGeometry>
        </mxCell>
        <mxCell id="GEMINI-ATTR-CUST-6A" value="Street_Number" style="ellipse;whiteSpace=wrap;html=1;align=center;fontColor=#000000;fillColor=#dae8fc;strokeColor=#6c8ebf;" vertex="1" parent="1">
          <mxGeometry x="542.9" y="695" width="90" height="30" as="geometry" />
        </mxCell>
        <mxCell id="GEMINI-EDGE-CUST-6A" value="" style="endArrow=none;html=1;rounded=0;strokeColor=#666666;" edge="1" parent="1" source="GEMINI-ATTR-CUST-6A" target="GEMINI-ATTR-CUST-6">
          <mxGeometry relative="1" as="geometry">
            <mxPoint x="587.9" y="725" as="sourcePoint" />
            <mxPoint x="687.9" y="725" as="targetPoint" />
          </mxGeometry>
        </mxCell>
        <mxCell id="GEMINI-ATTR-CUST-6B" value="Street_Name" style="ellipse;whiteSpace=wrap;html=1;align=center;fontColor=#000000;fillColor=#dae8fc;strokeColor=#6c8ebf;" vertex="1" parent="1">
          <mxGeometry x="642.9" y="695" width="90" height="30" as="geometry" />
        </mxCell>
        <mxCell id="GEMINI-EDGE-CUST-6B" value="" style="endArrow=none;html=1;rounded=0;strokeColor=#666666;" edge="1" parent="1" source="GEMINI-ATTR-CUST-6B" target="GEMINI-ATTR-CUST-6">
          <mxGeometry relative="1" as="geometry">
            <mxPoint x="687.9" y="725" as="sourcePoint" />
            <mxPoint x="787.9" y="725" as="targetPoint" />
          </mxGeometry>
        </mxCell>
        <mxCell id="GEMINI-ATTR-CUST-6C" value="City" style="ellipse;whiteSpace=wrap;html=1;align=center;fontColor=#000000;fillColor=#dae8fc;strokeColor=#6c8ebf;" vertex="1" parent="1">
          <mxGeometry x="742.9" y="695" width="90" height="30" as="geometry" />
        </mxCell>
        <mxCell id="GEMINI-EDGE-CUST-6C" value="" style="endArrow=none;html=1;rounded=0;strokeColor=#666666;" edge="1" parent="1" source="GEMINI-ATTR-CUST-6C" target="GEMINI-ATTR-CUST-6">
          <mxGeometry relative="1" as="geometry">
            <mxPoint x="787.9" y="725" as="sourcePoint" />
            <mxPoint x="887.9" y="725" as="targetPoint" />
          </mxGeometry>
        </mxCell>
        <mxCell id="GEMINI-ATTR-CUST-6D" value="State" style="ellipse;whiteSpace=wrap;html=1;align=center;fontColor=#000000;fillColor=#dae8fc;strokeColor=#6c8ebf;" vertex="1" parent="1">
          <mxGeometry x="842.9" y="695" width="90" height="30" as="geometry" />
        </mxCell>
        <mxCell id="GEMINI-EDGE-CUST-6D" value="" style="endArrow=none;html=1;rounded=0;strokeColor=#666666;" edge="1" parent="1" source="GEMINI-ATTR-CUST-6D" target="GEMINI-ATTR-CUST-6">
          <mxGeometry relative="1" as="geometry">
            <mxPoint x="887.9" y="725" as="sourcePoint" />
            <mxPoint x="987.9" y="725" as="targetPoint" />
          </mxGeometry>
        </mxCell>
        <mxCell id="GEMINI-ATTR-CUST-6E" value="Zip_Code" style="ellipse;whiteSpace=wrap;html=1;align=center;fontColor=#000000;fillColor=#dae8fc;strokeColor=#6c8ebf;" vertex="1" parent="1">
          <mxGeometry x="642.9" y="745" width="90" height="30" as="geometry" />
        </mxCell>
        <mxCell id="GEMINI-EDGE-CUST-6E" value="" style="endArrow=none;html=1;rounded=0;strokeColor=#666666;" edge="1" parent="1" source="GEMINI-ATTR-CUST-6E" target="GEMINI-ATTR-CUST-6">
          <mxGeometry relative="1" as="geometry">
            <mxPoint x="687.9" y="775" as="sourcePoint" />
            <mxPoint x="787.9" y="775" as="targetPoint" />
          </mxGeometry>
        </mxCell>
        <mxCell id="GEMINI-ATTR-CUST-6F" value="Country" style="ellipse;whiteSpace=wrap;html=1;align=center;fontColor=#000000;fillColor=#dae8fc;strokeColor=#6c8ebf;" vertex="1" parent="1">
          <mxGeometry x="742.9" y="745" width="90" height="30" as="geometry" />
        </mxCell>
        <mxCell id="GEMINI-EDGE-CUST-6F" value="" style="endArrow=none;html=1;rounded=0;strokeColor=#666666;" edge="1" parent="1" source="GEMINI-ATTR-CUST-6F" target="GEMINI-ATTR-CUST-6">
          <mxGeometry relative="1" as="geometry">
            <mxPoint x="787.9" y="775" as="sourcePoint" />
            <mxPoint x="887.9" y="775" as="targetPoint" />
          </mxGeometry>
        </mxCell>
        <mxCell id="GEMINI-ATTR-EMP-1" value="&lt;u&gt;Employee_ID&lt;/u&gt;" style="ellipse;whiteSpace=wrap;html=1;align=center;fontColor=#000000;fillColor=#dae8fc;strokeColor=#6c8ebf;" vertex="1" parent="1">
          <mxGeometry x="507" y="552" width="100" height="40" as="geometry" />
        </mxCell>
        <mxCell id="GEMINI-EDGE-EMP-1" value="" style="endArrow=none;html=1;rounded=0;strokeColor=#666666;" edge="1" parent="1" source="GEMINI-ATTR-EMP-1" target="Izek-PB7fgDzVprNoVY3-68">
          <mxGeometry relative="1" as="geometry">
            <mxPoint x="557" y="592" as="sourcePoint" />
            <mxPoint x="657" y="592" as="targetPoint" />
          </mxGeometry>
        </mxCell>
        <mxCell id="GEMINI-ATTR-EMP-2" value="Date_of_Hire" style="ellipse;whiteSpace=wrap;html=1;align=center;fontColor=#000000;fillColor=#dae8fc;strokeColor=#6c8ebf;" vertex="1" parent="1">
          <mxGeometry x="797" y="552" width="100" height="40" as="geometry" />
        </mxCell>
        <mxCell id="GEMINI-EDGE-EMP-2" value="" style="endArrow=none;html=1;rounded=0;strokeColor=#666666;" edge="1" parent="1" source="GEMINI-ATTR-EMP-2" target="Izek-PB7fgDzVprNoVY3-68">
          <mxGeometry relative="1" as="geometry">
            <mxPoint x="847" y="592" as="sourcePoint" />
            <mxPoint x="747" y="592" as="targetPoint" />
          </mxGeometry>
        </mxCell>
        <mxCell id="GEMINI-ATTR-EMP-3" value="Job_Title" style="ellipse;whiteSpace=wrap;html=1;align=center;fontColor=#000000;fillColor=#dae8fc;strokeColor=#6c8ebf;" vertex="1" parent="1">
          <mxGeometry x="837" y="622" width="100" height="40" as="geometry" />
        </mxCell>
        <mxCell id="GEMINI-EDGE-EMP-3" value="" style="endArrow=none;html=1;rounded=0;strokeColor=#666666;" edge="1" parent="1" source="GEMINI-ATTR-EMP-3" target="Izek-PB7fgDzVprNoVY3-68">
          <mxGeometry relative="1" as="geometry">
            <mxPoint x="887" y="662" as="sourcePoint" />
            <mxPoint x="787" y="662" as="targetPoint" />
          </mxGeometry>
        </mxCell>
        <mxCell id="GEMINI-ATTR-EMP-4" value="Salary" style="ellipse;whiteSpace=wrap;html=1;align=center;fontColor=#000000;fillColor=#dae8fc;strokeColor=#6c8ebf;" vertex="1" parent="1">
          <mxGeometry x="797" y="692" width="100" height="40" as="geometry" />
        </mxCell>
        <mxCell id="GEMINI-EDGE-EMP-4" value="" style="endArrow=none;html=1;rounded=0;strokeColor=#666666;" edge="1" parent="1" source="GEMINI-ATTR-EMP-4" target="Izek-PB7fgDzVprNoVY3-68">
          <mxGeometry relative="1" as="geometry">
            <mxPoint x="847" y="732" as="sourcePoint" />
            <mxPoint x="747" y="732" as="targetPoint" />
          </mxGeometry>
        </mxCell>
        <mxCell id="GEMINI-ATTR-EMP-5" value="Phone_Number" style="ellipse;whiteSpace=wrap;html=1;align=center;fontColor=#000000;fillColor=#dae8fc;strokeColor=#6c8ebf;" vertex="1" parent="1">
          <mxGeometry x="637" y="732" width="100" height="40" as="geometry" />
        </mxCell>
        <mxCell id="GEMINI-EDGE-EMP-5" value="" style="endArrow=none;html=1;rounded=0;strokeColor=#666666;" edge="1" parent="1" source="GEMINI-ATTR-EMP-5" target="Izek-PB7fgDzVprNoVY3-68">
          <mxGeometry relative="1" as="geometry">
            <mxPoint x="687" y="772" as="sourcePoint" />
            <mxPoint x="687" y="672" as="targetPoint" />
          </mxGeometry>
        </mxCell>
        <mxCell id="GEMINI-ATTR-EMP-6" value="Email_Address" style="ellipse;whiteSpace=wrap;html=1;align=center;fontColor=#000000;fillColor=#dae8fc;strokeColor=#6c8ebf;" vertex="1" parent="1">
          <maGeometry x="507" y="692" width="100" height="40" as="geometry" />
        </mxCell>
        <mxCell id="GEMINI-EDGE-EMP-6" value="" style="endArrow=none;html=1;rounded=0;strokeColor=#666666;" edge="1" parent="1" source="GEMINI-ATTR-EMP-6" target="Izek-PB7fgDzVprNoVY3-68">
          <mxGeometry relative="1" as="geometry">
            <mxPoint x="557" y="732" as="sourcePoint" />
            <mxPoint x="657" y="732" as="targetPoint" />
          </mxGeometry>
        </mxCell>
        <mxCell id="GEMINI-ATTR-EMP-7" value="Date_of_Birth" style="ellipse;whiteSpace=wrap;html=1;align=center;fontColor=#000000;fillColor=#dae8fc;strokeColor=#6c8ebf;" vertex="1" parent="1">
          <mxGeometry x="467" y="622" width="100" height="40" as="geometry" />
        </mxCell>
        <mxCell id="GEMINI-EDGE-EMP-7" value="" style="endArrow=none;html=1;rounded=0;strokeColor=#666666;" edge="1" parent="1" source="GEMINI-ATTR-EMP-7" target="Izek-PB7fgDzVprNoVY3-68">
          <mxGeometry relative="1" as="geometry">
            <mxPoint x="517" y="662" as="sourcePoint" />
            <mxPoint x="617" y="662" as="targetPoint" />
          </mxGeometry>
        </mxCell>
        <mxCell id="GEMINI-ATTR-EMP-8" value="Age" style="ellipse;whiteSpace=wrap;html=1;align=center;dashed=1;fontColor=#000000;fillColor=#dae8fc;strokeColor=#6c8ebf;" vertex="1" parent="1">
          <mxGeometry x="677" y="472" width="80" height="40" as="geometry" />
        </mxCell>
        <mxCell id="GEMINI-EDGE-EMP-8" value="" style="endArrow=none;html=1;rounded=0;strokeColor=#666666;" edge="1" parent="1" source="GEMINI-ATTR-EMP-8" target="Izek-PB7fgDzVprNoVY3-68">
          <mxGeometry relative="1" as="geometry">
            <mxPoint x="717" y="512" as="sourcePoint" />
            <mxPoint x="717" y="612" as="targetPoint" />
          </mxGeometry>
        </mxCell>
        <mxCell id="GEMINI-ATTR-EMP-9" value="Name" style="ellipse;whiteSpace=wrap;html=1;align=center;fontColor=#000000;fillColor=#dae8fc;strokeColor=#6c8ebf;" vertex="1" parent="1">
          <mxGeometry x="587" y="472" width="80" height="40" as="geometry" />
        </mxCell>
        <mxCell id="GEMINI-EDGE-EMP-9" value="" style="endArrow=none;html=1;rounded=0;strokeColor=#666666;" edge="1" parent="1" source="GEMINI-ATTR-EMP-9" target="Izek-PB7fgDzVprNoVY3-68">
          <mxGeometry relative="1" as="geometry">
            <mxPoint x="627" y="512" as="sourcePoint" />
            <mxPoint x="627" y="612" as="targetPoint" />
          </mxGeometry>
        </mxCell>
        <mxCell id="GEMINI-ATTR-EMP-9A" value="First_Name" style="ellipse;whiteSpace=wrap;html=1;align=center;fontColor=#000000;fillColor=#dae8fc;strokeColor=#6c8ebf;" vertex="1" parent="1">
          <mxGeometry x="497" y="422" width="90" height="30" as="geometry" />
        </mxCell>
        <mxCell id="GEMINI-EDGE-EMP-9A" value="" style="endArrow=none;html=1;rounded=0;strokeColor=#666666;" edge="1" parent="1" source="GEMINI-ATTR-EMP-9A" target="GEMINI-ATTR-EMP-9">
          <mxGeometry relative="1" as="geometry">
            <mxPoint x="542" y="452" as="sourcePoint" />
            <mxPoint x="642" y="452" as="targetPoint" />
          </mxGeometry>
        </mxCell>
        <mxCell id="GEMINI-ATTR-EMP-9B" value="Last_Name" style="ellipse;whiteSpace=wrap;html=1;align=center;fontColor=#000000;fillColor=#dae8fc;strokeColor=#6c8ebf;" vertex="1" parent="1">
          <mxGeometry x="617" y="422" width="90" height="30" as="geometry" />
        </mxCell>
        <mxCell id="GEMINI-EDGE-EMP-9B" value="" style="endArrow=none;html=1;rounded=0;strokeColor=#666666;" edge="1" parent="1" source="GEMINI-ATTR-EMP-9B" target="GEMINI-ATTR-EMP-9">
          <mxGeometry relative="1" as="geometry">
            <mxPoint x="662" y="452" as="sourcePoint" />
            <mxPoint x="762" y="452" as="targetPoint" />
          </mxGeometry>
        </mxCell>
        <mxCell id="GEMINI-ATTR-REP-1" value="&lt;u&gt;Repair_ID&lt;/u&gt;" style="ellipse;whiteSpace=wrap;html=1;align=center;fontColor=#000000;fillColor=#dae8fc;strokeColor=#6c8ebf;" vertex="1" parent="1">
          <mxGeometry x="542.9" y="180" width="100" height="40" as="geometry" />
        </mxCell>
        <mxCell id="GEMINI-EDGE-REP-1" value="" style="endArrow=none;html=1;rounded=0;strokeColor=#666666;" edge="1" parent="1" source="GEMINI-ATTR-REP-1" target="Izek-PB7fgDzVprNoVY3-17">
          <mxGeometry relative="1" as="geometry">
            <mxPoint x="592.9" y="220" as="sourcePoint" />
            <mxPoint x="692.9" y="220" as="targetPoint" />
          </mxGeometry>
        </mxCell>
        <mxCell id="GEMINI-ATTR-REP-2" value="Request_Date" style="ellipse;whiteSpace=wrap;html=1;align=center;fontColor=#000000;fillColor=#dae8fc;strokeColor=#6c8ebf;" vertex="1" parent="1">
          <mxGeometry x="782.9" y="180" width="100" height="40" as="geometry" />
        </mxCell>
        <mxCell id="GEMINI-EDGE-REP-2" value="" style="endArrow=none;html=1;rounded=0;strokeColor=#666666;" edge="1" parent="1" source="GEMINI-ATTR-REP-2" target="Izek-PB7fgDzVprNoVY3-17">
          <mxGeometry relative="1" as="geometry">
            <mxPoint x="832.9" y="220" as="sourcePoint" />
            <mxPoint x="732.9" y="220" as="targetPoint" />
          </mxGeometry>
        </mxCell>
        <mxCell id="GEMINI-ATTR-REP-3" value="Start_Date" style="ellipse;whiteSpace=wrap;html=1;align=center;fontColor=#000000;fillColor=#dae8fc;strokeColor=#6c8ebf;" vertex="1" parent="1">
          <mxGeometry x="852.9" y="230" width="100" height="40" as="geometry" />
        </mxCell>
        <mxCell id="GEMINI-EDGE-REP-3" value="" style="endArrow=none;html=1;rounded=0;strokeColor=#666666;" edge="1" parent="1" source="GEMINI-ATTR-REP-3" target="Izek-PB7fgDzVprNoVY3-17">
          <mxGeometry relative="1" as="geometry">
            <mxPoint x="902.9" y="270" as="sourcePoint" />
            <mxPoint x="802.9" y="270" as="targetPoint" />
          </mxGeometry>
        </mxCell>
        <mxCell id="GEMINI-ATTR-REP-4" value="Completion_Date" style="ellipse;whiteSpace=wrap;html=1;align=center;fontColor=#000000;fillColor=#dae8fc;strokeColor=#6c8ebf;" vertex="1" parent="1">
          <mxGeometry x="852.9" y="290" width="100" height="40" as="geometry" />
        </mxCell>
        <mxCell id="GEMINI-EDGE-REP-4" value="" style="endArrow=none;html=1;rounded=0;strokeColor=#666666;" edge="1" parent="1" source="GEMINI-ATTR-REP-4" target="Izek-PB7fgDzVprNoVY3-17">
          <mxGeometry relative="1" as="geometry">
            <mxPoint x="902.9" y="330" as="sourcePoint" />
            <mxPoint x="802.9" y="330" as="targetPoint" />
          </mxGeometry>
        </mxCell>
        <mxCell id="GEMINI-ATTR-REP-5" value="Problem_Description" style="ellipse;whiteSpace=wrap;html=1;align=center;fontColor=#000000;fillColor=#dae8fc;strokeColor=#6c8ebf;" vertex="1" parent="1">
          <mxGeometry x="782.9" y="340" width="130" height="40" as="geometry" />
        </mxCell>
        <mxCell id="GEMINI-EDGE-REP-5" value="" style="endArrow=none;html=1;rounded=0;strokeColor=#666666;" edge="1" parent="1" source="GEMINI-ATTR-REP-5" target="Izek-PB7fgDzVprNoVY3-17">
          <mxGeometry relative="1" as="geometry">
            <mxPoint x="847.9" y="380" as="sourcePoint" />
            <mxPoint x="747.9" y="380" as="targetPoint" />
          </mxGeometry>
        </mxCell>
        <mxCell id="GEMINI-ATTR-REP-6" value="Work_Performed_Description" style="ellipse;whiteSpace=wrap;html=1;align=center;fontColor=#000000;fillColor=#dae8fc;strokeColor=#6c8ebf;" vertex="1" parent="1">
          <mxGeometry x="542.9" y="340" width="130" height="40" as="geometry" />
        </mxCell>
        <mxCell id="GEMINI-EDGE-REP-6" value="" style="endArrow=none;html=1;rounded=0;strokeColor=#666666;" edge="1" parent="1" source="GEMINI-ATTR-REP-6" target="Izek-PB7fgDzVprNoVY3-17">
          <mxGeometry relative="1" as="geometry">
            <mxPoint x="607.9" y="380" as="sourcePoint" />
            <mxPoint x="707.9" y="380" as="targetPoint" />
          </mxGeometry>
        </mxCell>
        <mxCell id="GEMINI-ATTR-REP-7" value="Labor_Cost" style="ellipse;whiteSpace=wrap;html=1;align=center;fontColor=#000000;fillColor=#dae8fc;strokeColor=#6c8ebf;" vertex="1" parent="1">
          <mxGeometry x="452.9" y="290" width="100" height="40" as="geometry" />
        </mxCell>
        <mxCell id="GEMINI-EDGE-REP-7" value="" style="endArrow=none;html=1;rounded=0;strokeColor=#666666;" edge="1" parent="1" source="GEMINI-ATTR-REP-7" target="Izek-PB7fgDzVprNoVY3-17">
          <mxGeometry relative="1" as="geometry">
            <mxPoint x="502.9" y="330" as="sourcePoint" />
            <mxPoint x="602.9" y="330" as="targetPoint" />
          </mxGeometry>
        </mxCell>
        <mxCell id="GEMINI-ATTR-REP-8" value="Parts_Cost" style="ellipse;whiteSpace=wrap;html=1;align=center;fontColor=#000000;fillColor=#dae8fc;strokeColor=#6c8ebf;" vertex="1" parent="1">
          <mxGeometry x="452.9" y="230" width="100" height="40" as="geometry" />
        </mxCell>
        <mxCell id="GEMINI-EDGE-REP-8" value="" style="endArrow=none;html=1;rounded=0;strokeColor=#666666;" edge="1" parent="1" source="GEMINI-ATTR-REP-8" target="Izek-PB7fgDzVprNoVY3-17">
          <mxGeometry relative="1" as="geometry">
            <mxPoint x="502.9" y="270" as="sourcePoint" />
            <mxPoint x="602.9" y="270" as="targetPoint" />
          </mxGeometry>
        </mxCell>
        <mxCell id="GEMINI-ATTR-REP-9" value="Total_Repair_Cost" style="ellipse;whiteSpace=wrap;html=1;align=center;dashed=1;fontColor=#000000;fillColor=#dae8fc;strokeColor=#6c8ebf;" vertex="1" parent="1">
          <mxGeometry x="672.9" y="130" width="120" height="40" as="geometry" />
        </mxCell>
        <mxCell id="GEMINI-EDGE-REP-9" value="" style="endArrow=none;html=1;rounded=0;strokeColor=#666666;" edge="1" parent="1" source="GEMINI-ATTR-REP-9" target="Izek-PB7fgDzVprNoVY3-17">
          <mxGeometry relative="1" as="geometry">
            <mxPoint x="732.9" y="170" as="sourcePoint" />
            <mxPoint x="732.9" y="270" as="targetPoint" />
          </mxGeometry>
        </mxCell>
        <mxCell id="GEMINI-ATTR-REP-10" value="Repair_Status" style="ellipse;whiteSpace=wrap;html=1;align=center;fontColor=#000000;fillColor=#dae8fc;strokeColor=#6c8ebf;" vertex="1" parent="1">
          <mxGeometry x="672.9" y="340" width="100" height="40" as="geometry" />
        </mxCell>
        <mxCell id="GEMINI-EDGE-REP-10" value="" style="endArrow=none;html=1;rounded=0;strokeColor=#666666;" edge="1" parent="1" source="GEMINI-ATTR-REP-10" target="Izek-PB7fgDzVprNoVY3-17">
          <mxGeometry relative="1" as="geometry">
            <mxPoint x="722.9" y="380" as="sourcePoint" />
            <mxPoint x="722.9" y="300" as="targetPoint" />
          </mxGeometry>
        </mxCell>
        <mxCell id="GEMINI-ATTR-SALE-1" value="&lt;u&gt;Sale_ID&lt;/u&gt;" style="ellipse;whiteSpace=wrap;html=1;align=center;fontColor=#000000;fillColor=#dae8fc;strokeColor=#6c8ebf;" vertex="1" parent="1">
          <mxGeometry x="1043.5" y="463" width="100" height="40" as="geometry" />
        </mxCell>
        <mxCell id="GEMINI-EDGE-SALE-1" value="" style="endArrow=none;html=1;rounded=0;strokeColor=#666666;" edge="1" parent="1" source="GEMINI-ATTR-SALE-1" target="Izek-PB7fgDzVprNoVY3-15">
          <mxGeometry relative="1" as="geometry">
            <mxPoint x="1093.5" y="503" as="sourcePoint" />
            <mxPoint x="1193.5" y="503" as="targetPoint" />
          </mxGeometry>
        </mxCell>
        <mxCell id="GEMINI-ATTR-SALE-2" value="Sale_Date" style="ellipse;whiteSpace=wrap;html=1;align=center;fontColor=#000000;fillColor=#dae8fc;strokeColor=#6c8ebf;" vertex="1" parent="1">
          <mxGeometry x="1243.5" y="463" width="100" height="40" as="geometry" />
        </mxCell>
        <mxCell id="GEMINI-EDGE-SALE-2" value="" style="endArrow=none;html=1;rounded=0;strokeColor=#666666;" edge="1" parent="1" source="GEMINI-ATTR-SALE-2" target="Izek-PB7fgDzVprNoVY3-15">
          <mxGeometry relative="1" as="geometry">
            <mxPoint x="1293.5" y="503" as="sourcePoint" />
            <mxPoint x="1193.5" y="503" as="targetPoint" />
          </mxGeometry>
        </mxCell>
        <mxCell id="GEMINI-ATTR-SALE-3" value="Sale_Time" style="ellipse;whiteSpace=wrap;html=1;align=center;fontColor=#000000;fillColor=#dae8fc;strokeColor=#6c8ebf;" vertex="1" parent="1">
          <mxGeometry x="1323.5" y="533" width="100" height="40" as="geometry" />
        </mxCell>
        <mxCell id="GEMINI-EDGE-SALE-3" value="" style="endArrow=none;html=1;rounded=0;strokeColor=#666666;" edge="1" parent="1" source="GEMINI-ATTR-SALE-3" target="Izek-PB7fgDzVprNoVY3-15">
          <mxGeometry relative="1" as="geometry">
            <mxPoint x="1373.5" y="573" as="sourcePoint" />
            <mxPoint x="1273.5" y="573" as="targetPoint" />
          </mxGeometry>
        </mxCell>
        <mxCell id="GEMINI-ATTR-SALE-4" value="Total_Amount" style="ellipse;whiteSpace=wrap;html=1;align=center;fontColor=#000000;fillColor=#dae8fc;strokeColor=#6c8ebf;" vertex="1" parent="1">
          <mxGeometry x="1243.5" y="603" width="100" height="40" as="geometry" />
        </mxCell>
        <mxCell id="GEMINI-EDGE-SALE-4" value="" style="endArrow=none;html=1;rounded=0;strokeColor=#666666;" edge="1" parent="1" source="GEMINI-ATTR-SALE-4" target="Izek-PB7fgDzVprNoVY3-15">
          <mxGeometry relative="1" as="geometry">
            <mxPoint x="1293.5" y="643" as="sourcePoint" />
            <mxPoint x="1193.5" y="643" as="targetPoint" />
          </mxGeometry>
        </mxCell>
        <mxCell id="GEMINI-ATTR-SALE-5" value="Payment_Method" style="ellipse;whiteSpace=wrap;html=1;align=center;fontColor=#000000;fillColor=#dae8fc;strokeColor=#6c8ebf;" vertex="1" parent="1">
          <mxGeometry x="1043.5" y="603" width="100" height="40" as="geometry" />
        </mxCell>
        <mxCell id="GEMINI-EDGE-SALE-5" value="" style="endArrow=none;html=1;rounded=0;strokeColor=#666666;" edge="1" parent="1" source="GEMINI-ATTR-SALE-5" target="Izek-PB7fgDzVprNoVY3-15">
          <mxGeometry relative="1" as="geometry">
            <mxPoint x="1093.5" y="643" as="sourcePoint" />
            <mxPoint x="1193.5" y="643" as="targetPoint" />
          </mxGeometry>
        </mxCell>
        <mxCell id="GEMINI-ATTR-SALE-6" value="Discount_Applied" style="ellipse;whiteSpace=wrap;html=1;align=center;fontColor=#000000;fillColor=#dae8fc;strokeColor=#6c8ebf;" vertex="1" parent="1">
          <mxGeometry x="973.5" y="533" width="100" height="40" as="geometry" />
        </mxCell>
        <mxCell id="GEMINI-EDGE-SALE-6" value="" style="endArrow=none;html=1;rounded=0;strokeColor=#666666;" edge="1" parent="1" source="GEMINI-ATTR-SALE-6" target="Izek-PB7fgDzVprNoVY3-15">
          <mxGeometry relative="1" as="geometry">
            <mxPoint x="1023.5" y="573" as="sourcePoint" />
            <mxPoint x="1123.5" y="573" as="targetPoint" />
          </mxGeometry>
        </mxCell>
        <mxCell id="GEMINI-ATTR-SALE-7" value="Sale_Status" style="ellipse;whiteSpace=wrap;html=1;align=center;fontColor=#000000;fillColor=#dae8fc;strokeColor=#6c8ebf;" vertex="1" parent="1">
          <mxGeometry x="1163.5" y="423" width="100" height="40" as="geometry" />
        </mxCell>
        <mxCell id="GEMINI-EDGE-SALE-7" value="" style="endArrow=none;html=1;rounded=0;strokeColor=#666666;" edge="1" parent="1" source="GEMINI-ATTR-SALE-7" target="Izek-PB7fgDzVprNoVY3-15">
          <mxGeometry relative="1" as="geometry">
            <mxPoint x="1213.5" y="463" as="sourcePoint" />
            <mxPoint x="1213.5" y="563" as="targetPoint" />
          </mxGeometry>
        </mxCell>
        <mxCell id="GEMINI-ATTR-COMP-1" value="&lt;u&gt;Company_ID&lt;/u&gt;" style="ellipse;whiteSpace=wrap;html=1;align=center;fontColor=#000000;fillColor=#dae8fc;strokeColor=#6c8ebf;" vertex="1" parent="1">
          <mxGeometry x="780" y="801" width="100" height="40" as="geometry" />
        </mxCell>
        <mxCell id="GEMINI-EDGE-COMP-1" value="" style="endArrow=none;html=1;rounded=0;strokeColor=#666666;" edge="1" parent="1" source="GEMINI-ATTR-COMP-1" target="Izek-PB7fgDzVprNoVY3-57">
          <mxGeometry relative="1" as="geometry">
            <mxPoint x="830" y="841" as="sourcePoint" />
            <mxPoint x="930" y="841" as="targetPoint" />
          </mxGeometry>
        </mxCell>
        <mxCell id="GEMINI-ATTR-COMP-2" value="Company_Name" style="ellipse;whiteSpace=wrap;html=1;align=center;fontColor=#000000;fillColor=#dae8fc;strokeColor=#6c8ebf;" vertex="1" parent="1">
          <mxGeometry x="780" y="931" width="100" height="40" as="geometry" />
        </mxCell>
        <mxCell id="GEMINI-EDGE-COMP-2" value="" style="endArrow=none;html=1;rounded=0;strokeColor=#666666;" edge="1" parent="1" source="GEMINI-ATTR-COMP-2" target="Izek-PB7fgDzVprNoVY3-57">
          <mxGeometry relative="1" as="geometry">
            <mxPoint x="830" y="971" as="sourcePoint" />
            <mxPoint x="930" y="971" as="targetPoint" />
          </mxGeometry>
        </mxCell>
        <mxCell id="GEMINI-ATTR-COMP-3" value="Phone_Number" style="ellipse;whiteSpace=wrap;html=1;align=center;fontColor=#000000;fillColor=#dae8fc;strokeColor=#6c8ebf;" vertex="1" parent="1">
          <mxGeometry x="870" y="981" width="100" height="40" as="geometry" />
        </mxCell>
        <mxCell id="GEMINI-EDGE-COMP-3" value="" style="endArrow=none;html=1;rounded=0;strokeColor=#666666;" edge="1" parent="1" source="GEMINI-ATTR-COMP-3" target="Izek-PB7fgDzVprNoVY3-57">
          <mxGeometry relative="1" as="geometry">
            <mxPoint x="920" y="1021" as="sourcePoint" />
            <mxPoint x="920" y="921" as="targetPoint" />
          </mxGeometry>
        </mxCell>
        <mxCell id="GEMINI-ATTR-COMP-4" value="Email_Address" style="ellipse;whiteSpace=wrap;html=1;align=center;fontColor=#000000;fillColor=#dae8fc;strokeColor=#6c8ebf;" vertex="1" parent="1">
          <mxGeometry x="990" y="981" width="100" height="40" as="geometry" />
        </mxCell>
        <mxCell id="GEMINI-EDGE-COMP-4" value="" style="endArrow=none;html=1;rounded=0;strokeColor=#666666;" edge="1" parent="1" source="GEMINI-ATTR-COMP-4" target="Izek-PB7fgDzVprNoVY3-57">
          <mxGeometry relative="1" as="geometry">
            <mxPoint x="1040" y="1021" as="sourcePoint" />
            <mxPoint x="1040" y="921" as="targetPoint" />
          </mxGeometry>
        </mxCell>
        <mxCell id="GEMINI-ATTR-COMP-5" value="Website" style="ellipse;whiteSpace=wrap;html=1;align=center;fontColor=#000000;fillColor=#dae8fc;strokeColor=#6c8ebf;" vertex="1" parent="1">
          <mxGeometry x="1080" y="931" width="100" height="40" as="geometry" />
        </mxCell>
        <mxCell id="GEMINI-EDGE-COMP-5" value="" style="endArrow=none;html=1;rounded=0;strokeColor=#666666;" edge="1" parent="1" source="GEMINI-ATTR-COMP-5" target="Izek-PB7fgDzVprNoVY3-57">
          <mxGeometry relative="1" as="geometry">
            <mxPoint x="1130" y="971" as="sourcePoint" />
            <mxPoint x="1030" y="971" as="targetPoint" />
          </mxGeometry>
        </mxCell>
        <mxCell id="GEMINI-ATTR-COMP-6" value="Address" style="ellipse;whiteSpace=wrap;html=1;align=center;fontColor=#000000;fillColor=#dae8fc;strokeColor=#6c8ebf;" vertex="1" parent="1">
          <mxGeometry x="1080" y="801" width="80" height="40" as="geometry" />
        </mxCell>
        <mxCell id="GEMINI-EDGE-COMP-6" value="" style="endArrow=none;html=1;rounded=0;strokeColor=#666666;" edge="1" parent="1" source="GEMINI-ATTR-COMP-6" target="Izek-PB7fgDzVprNoVY3-57">
          <mxGeometry relative="1" as="geometry">
            <mxPoint x="1120" y="841" as="sourcePoint" />
            <mxPoint x="1020" y="841" as="targetPoint" />
          </mxGeometry>
        </mxCell>
        <mxCell id="GEMINI-ATTR-COMP-6A" value="Street_Number" style="ellipse;whiteSpace=wrap;html=1;align=center;fontColor=#000000;fillColor=#dae8fc;strokeColor=#6c8ebf;" vertex="1" parent="1">
          <mxGeometry x="1190" y="761" width="90" height="30" as="geometry" />
        </mxCell>
        <mxCell id="GEMINI-EDGE-COMP-6A" value="" style="endArrow=none;html=1;rounded=0;strokeColor=#666666;" edge="1" parent="1" source="GEMINI-ATTR-COMP-6A" target="GEMINI-ATTR-COMP-6">
          <mxGeometry relative="1" as="geometry">
            <mxPoint x="1235" y="791" as="sourcePoint" />
            <mxPoint x="1135" y="791" as="targetPoint" />
          </mxGeometry>
        </mxCell>
        <mxCell id="GEMINI-ATTR-COMP-6B" value="Street_Name" style="ellipse;whiteSpace=wrap;html=1;align=center;fontColor=#000000;fillColor=#dae8fc;strokeColor=#6c8ebf;" vertex="1" parent="1">
          <mxGeometry x="1190" y="801" width="90" height="30" as="geometry" />
        </mxCell>
        <mxCell id="GEMINI-EDGE-COMP-6B" value="" style="endArrow=none;html=1;rounded=0;strokeColor=#666666;" edge="1" parent="1" source="GEMINI-ATTR-COMP-6B" target="GEMINI-ATTR-COMP-6">
          <mxGeometry relative="1" as="geometry">
            <mxPoint x="1235" y="831" as="sourcePoint" />
            <mxPoint x="1135" y="831" as="targetPoint" />
          </mxGeometry>
        </mxCell>
        <mxCell id="GEMINI-ATTR-COMP-6C" value="City" style="ellipse;whiteSpace=wrap;html=1;align=center;fontColor=#000000;fillColor=#dae8fc;strokeColor=#6c8ebf;" vertex="1" parent="1">
          <mxGeometry x="1190" y="841" width="90" height="30" as="geometry" />
        </mxCell>
        <mxCell id="GEMINI-EDGE-COMP-6C" value="" style="endArrow=none;html=1;rounded=0;strokeColor=#666666;" edge="1" parent="1" source="GEMINI-ATTR-COMP-6C" target="GEMINI-ATTR-COMP-6">
          <mxGeometry relative="1" as="geometry">
            <mxPoint x="1235" y="871" as="sourcePoint" />
            <mxPoint x="1135" y="871" as="targetPoint" />
          </mxGeometry>
        </mxCell>
        <mxCell id="GEMINI-ATTR-COMP-6D" value="State" style="ellipse;whiteSpace=wrap;html=1;align=center;fontColor=#000000;fillColor=#dae8fc;strokeColor=#6c8ebf;" vertex="1" parent="1">
          <mxGeometry x="1080" y="741" width="90" height="30" as="geometry" />
        </mxCell>
        <mxCell id="GEMINI-EDGE-COMP-6D" value="" style="endArrow=none;html=1;rounded=0;strokeColor=#666666;" edge="1" parent="1" source="GEMINI-ATTR-COMP-6D" target="GEMINI-ATTR-COMP-6">
          <mxGeometry relative="1" as="geometry">
            <mxPoint x="1125" y="771" as="sourcePoint" />
            <mxPoint x="1125" y="871" as="targetPoint" />
          </mxGeometry>
        </mxCell>
        <mxCell id="GEMINI-ATTR-COMP-6E" value="Zip_Code" style="ellipse;whiteSpace=wrap;html=1;align=center;fontColor=#000000;fillColor=#dae8fc;strokeColor=#6c8ebf;" vertex="1" parent="1">
          <mxGeometry x="980" y="741" width="90" height="30" as="geometry" />
        </mxCell>
        <mxCell id="GEMINI-EDGE-COMP-6E" value="" style="endArrow=none;html=1;rounded=0;strokeColor=#666666;" edge="1" parent="1" source="GEMINI-ATTR-COMP-6E" target="GEMINI-ATTR-COMP-6">
          <mxGeometry relative="1" as="geometry">
            <mxPoint x="1025" y="771" as="sourcePoint" />
            <mxPoint x="1125" y="771" as="targetPoint" />
          </mxGeometry>
        </mxCell>
        <mxCell id="GEMINI-ATTR-COMP-6F" value="Country" style="ellipse;whiteSpace=wrap;html=1;align=center;fontColor=#000000;fillColor=#dae8fc;strokeColor=#6c8ebf;" vertex="1" parent="1">
          <mxGeometry x="880" y="741" width="90" height="30" as="geometry" />
        </mxCell>
        <mxCell id="GEMINI-EDGE-COMP-6F" value="" style="endArrow=none;html=1;rounded=0;strokeColor=#666666;" edge="1" parent="1" source="GEMINI-ATTR-COMP-6F" target="GEMINI-ATTR-COMP-6">
          <mxGeometry relative="1" as="geometry">
            <mxPoint x="925" y="771" as="sourcePoint" />
            <mxPoint x="1025" y="771" as="targetPoint" />
          </mxGeometry>
        </mxCell>
      </root>
    </mxGraphModel>
  </diagram>
</mxfile>
